<svg xmlns="http://www.w3.org/2000/svg" viewBox="0 0 200 200" width="150" height="150">
  <defs>
    <radialGradient id="bodyGrad" cx="50%" cy="40%" r="60%">
      <stop offset="0%" stop-color="#f5e6d3"/>
      <stop offset="100%" stop-color="#e8d4b8"/>
    </radialGradient>
    <radialGradient id="earGrad" cx="50%" cy="50%" r="50%">
      <stop offset="0%" stop-color="#f5c9a8"/>
      <stop offset="100%" stop-color="#e8b088"/>
    </radialGradient>
  </defs>

  <ellipse cx="100" cy="120" rx="70" ry="60" fill="url(#bodyGrad)"/>

  <polygon points="45,70 60,30 80,65" fill="url(#bodyGrad)"/>
  <polygon points="155,70 140,30 120,65" fill="url(#bodyGrad)"/>
  <polygon points="52,65 62,40 75,62" fill="url(#earGrad)"/>
  <polygon points="148,65 138,40 125,62" fill="url(#earGrad)"/>

  <ellipse cx="75" cy="100" rx="8" ry="10" fill="#2d2d2d"/>
  <ellipse cx="125" cy="100" rx="8" ry="10" fill="#2d2d2d"/>
  <circle cx="77" cy="97" r="3" fill="#fff"/>
  <circle cx="127" cy="97" r="3" fill="#fff"/>

  <ellipse cx="100" cy="115" rx="6" ry="4" fill="#e89a8a"/>

  <path d="M 88 122 Q 100 132 112 122" stroke="#7a6b5d" stroke-width="2" fill="none" stroke-linecap="round"/>

  <line x1="60" y1="110" x2="35" y2="105" stroke="#7a6b5d" stroke-width="1.5" stroke-linecap="round"/>
  <line x1="60" y1="118" x2="35" y2="120" stroke="#7a6b5d" stroke-width="1.5" stroke-linecap="round"/>
  <line x1="140" y1="110" x2="165" y2="105" stroke="#7a6b5d" stroke-width="1.5" stroke-linecap="round"/>
  <line x1="140" y1="118" x2="165" y2="120" stroke="#7a6b5d" stroke-width="1.5" stroke-linecap="round"/>

  <ellipse cx="65" cy="125" rx="12" ry="6" fill="#f5b8b0" opacity="0.5"/>
  <ellipse cx="135" cy="125" rx="12" ry="6" fill="#f5b8b0" opacity="0.5"/>
</svg>
